<?xml version="1.0" encoding="utf-8"?>
<!-- Generator: Adobe Illustrator 25.3.1, SVG Export Plug-In . SVG Version: 6.00 Build 0)  -->
<svg version="1.1" id="Layer_1" xmlns="http://www.w3.org/2000/svg" xmlns:xlink="http://www.w3.org/1999/xlink" x="0px" y="0px"
	 viewBox="0 0 41.8 41.8" style="enable-background:new 0 0 41.8 41.8;" xml:space="preserve">
<path d="M33.8,0H8C3.6,0,0,3.6,0,8v25.8c0,4.4,3.6,8,8,8h25.8c4.4,0,8-3.6,8-8V8C41.8,3.6,38.2,0,33.8,0z M21.6,15h5.2v6.5h-5.2V15z
	 M15,15h5.2v6.5H15V15z M33.4,34H8.5V7.8h5.2v21.4h14.6v-1.3H15v-4.8h18.4V34z M33.4,21.4h-5.2V7.8h5.2V21.4z"/>
</svg>
