<svg height="512pt" preserveAspectRatio="xMidYMid meet" viewBox="0 0 512 512" width="512pt" xmlns="http://www.w3.org/2000/svg"><path d="m975 4283c-26-9-47-11-60-5-11 4-42 10-69 11-45 2-51 0-80-34-28-32-37-36-81-38-28 0-52-4-55-9-3-4-20-8-38-10-18-1-39-9-47-18-21-23-44-88-49-136-1-12-8-29-16-39-7-9-16-44-18-78s-9-68-15-75c-16-20-9-73 12-97 17-18 18-31 7-80-1-5-7-19-14-31-10-20-9-352 2-484 2-25-1-63-6-85-17-63-17-116 0-154 20-48 16-134-8-184-24-49-25-75-5-104 10-14 14-48 14-114 0-52 6-116 14-144 11-38 12-54 3-64-13-17-19-241-6-256 5-6-2-34-15-65-22-51-22-56-7-73 9-10 17-26 19-35 13-64 13-93-1-114-10-16-15-54-17-118-1-52-6-110-11-129-8-26-6-44 7-75 10-23 22-52 27-66 6-14 23-51 39-82s29-68 29-81c0-35 43-71 75-63 29 7 128-25 157-51 32-28 85-40 136-30 26 5 75 11 110 12 35 2 70 6 78 9 7 3 14 2 14-3 0-4 10-12 23-18 17-8 30-7 52 6 25 13 67 16 260 16 225 0 231 0 255-23 26-24 41-18 47 20 7 47 32 53 116 28 26-8 49-22 52-31 9-28 47-39 85-23 40 17 64 21 180 30 121 9 145 7 178-10 16-8 32-12 36-9 4 4 42 8 86 9 44 2 83 4 87 7 5 2 23 4 42 6 18 1 47 11 63 22 21 15 33 18 40 11s19-7 35-1c15 6 30 6 37 0 6-4 22-6 36-3 30 6 43 6 135-1 39-3 86-10 105-16 20-6 74-9 120-7 109 5 132 0 168-35 28-28 43-68 56-154 16-106 37-122 26-20-3 30-6 128-5 217 0 146 2 166 20 190 11 15 25 29 31 32 22 9 87-13 113-38 15-14 30-26 33-26s29-15 57-34 72-45 97-58c25-12 50-33 55-46 12-31 46-42 83-27 29 13 98 4 121-15 12-10 55-2 55 10 0 23 111 35 185 20 21-5 35 1 60 24 26 24 42 26 122 11 25-4 46 17 67 67 9 20 29 45 45 54 51 30 80 111 64 180-10 41-9 51 7 73 11 14 26 52 35 83 9 32 21 60 26 63 13 8 11 49-2 62-7 7-13 29-15 50s-5 47-8 58c-34 147-36 165-20 203 9 20 18 53 20 72 4 40 4 38 4 150 0 47 4 100 9 119 7 24 7 42-2 65-10 24-10 41-1 76 6 25 9 65 6 90s-4 61-4 80c1 19-4 51-10 70-16 48-12 138 7 191 19 49 20 91 4 121-13 25-13 172 0 197 6 10 9 20 7 22-9 9-20 122-21 219 0 82 4 116 18 152 13 32 16 52 10 60-5 7-15 33-22 58s-19 60-27 78-12 37-9 42 8 33 11 62c7 66-10 92-144 223-90 88-94 91-137 90-25-1-48-4-51-8-13-13-82-7-87 6-3 9-17 13-39 11-18-2-73-5-122-7-100-3-119-15-115-77 4-53 14-66 71-93 29-13 74-44 99-69 45-43 47-48 59-130 7-47 10-91 8-99-3-8 5-32 18-55 21-35 22-45 13-75-22-69-29-246-11-282 13-27 13-42-5-117-12-47-3-143 16-179 6-11 9-26 6-33-2-7-6-29-9-49s-10-49-16-64c-10-26-11-50-12-180 0-77 13-158 29-186 14-23 14-30 3-44-19-22-23-356-5-401 11-26 10-36-5-65-10-19-17-36-15-40 4-6 19-146 18-174 0-11-4-50-7-87-5-49-3-75 8-102 19-46 5-95-27-97-55-3-85 5-126 32-47 30-52 32-88 29-13-1-33 10-48 26-14 15-37 27-56 29-44 4-55 19-37 47 8 13 13 34 11 48-1 14-4 59-5 100-2 52-7 78-17 86-16 12-17 73-2 102 14 27 15 84 2 117-21 52-17 107 12 162 21 40 21 36 2 73-15 29-16 44-15 258 0 51-4 102-11 113-11 22 2 87 24 117 6 8 5 28-3 57-13 46-7 152 9 168 4 4 3 32-4 61-9 36-9 59-2 71 16 29 12 111-7 140-9 14-14 31-10 37 4 7 9 75 10 152 2 115 5 142 18 152 9 6 16 18 16 27s4 18 9 21c4 3 7 18 5 32-4 38-60 84-102 84-19 0-64 13-101 30-37 16-83 32-102 35-54 9-89 26-89 44-1 26-22 47-70 68-25 11-59 32-75 47-24 22-37 27-67 24-21-2-38-1-38 2 0 10-54 30-81 30-14 0-38 9-51 20-14 10-28 17-31 14-2-3-15 9-27 25-12 17-30 31-41 31-32 0-59-19-53-35 4-9 2-21-3-28-5-6-10-28-12-47-1-19-15-53-31-76-16-22-32-53-35-67-8-29-52-70-66-61-5 3-9-1-9-9 0-22-42-55-80-62-19-4-55-8-80-10s-45-5-45-5c0-1-9-3-20-6-41-8-121-5-149 5-25 10-32 9-52-10-16-15-30-20-47-15-30 7-109 97-114 128-2 12-10 32-17 43-23 35-35 93-26 124 7 24 4 33-15 50-59 50-121 65-142 32-6-10-23-21-37-25-14-3-44-25-65-49-22-23-57-51-78-62s-54-32-73-47c-19-16-40-28-47-28s-13-5-13-10c0-16-82-48-122-48-24 0-53-12-90-36-30-20-68-38-84-41-74-11-124-35-124-61 0-7-7-17-16-22-10-5-16-20-15-36 2-35 2-55-3-91-2-16 3-46 10-65s15-62 18-95 8-72 11-87-1-42-8-60-15-59-16-92c-1-32-4-66-6-75-6-30 14-114 32-134 17-18 16-20-3-55-12-20-19-46-17-57 7-32 6-175-1-230-14-102-15-129-6-140 5-6 12-27 14-46 14-99 15-121 5-147-14-34-18-391-5-389 5 1 11-20 13-48 1-27 3-54 4-60 0-5-2-23-5-40-2-16-5-40-5-53-1-14-23-47-55-80-29-31-68-80-85-108-25-41-42-56-82-73-67-29-110-25-127 12-10 20-11 32-3 41 6 8 13 73 15 152 3 77 7 146 11 155 3 8-3 35-14 59-12 27-16 50-12 59 5 9 7 45 5 80-2 34 4 96 12 136 12 61 13 78 3 97-8 14-14 66-15 128-1 58-3 114-3 125s1 65 3 120c3 55 0 105-4 111-13 14 2 449 18 540 7 40 5 63-9 105-10 33-13 60-8 70 4 9 5 19 2 23-4 3-7 36-8 74-1 37-5 81-9 99-4 17-3 40 3 50 5 11 12 53 16 93 6 75 30 128 54 123 6-2 11 4 11 12s11 22 24 31c14 8 30 31 36 50 7 19 15 32 20 29 4-3 33 9 64 25 31 17 56 28 56 25 0-12 60 27 70 46 9 16 8 26-5 45-18 28-66 33-110 10-25-13-32-13-56 0-34 17-61 16-114-3zm-165-188c0-3-15-21-34-40-48-48-70-169-34-191 5-3 4-12-3-20s-11-35-11-59c1-25-2-45-8-45-18 0-39 45-35 75 2 17 6 55 9 85 6 83 69 198 109 200 4 0 7-2 7-5zm3564-89c23-21 36-43 36-59 0-14 4-28 9-32 5-3 9-19 9-35-1-28-2-28-27-15-37 19-60 63-51 97 5 18 3 33-6 45-13 18-18 33-10 33 3 0 21-15 40-34zm-1275-46c16 0 32-4 35-8 6-10-33-72-45-72-5 0-9-11-9-24 0-17-9-27-30-36-28-11-32-10-50 10-27 31-25 54 6 85 14 14 22 30 19 35-11 18 5 31 25 20 10-5 32-10 49-10zm-1085-41c15-7 32-29 41-53 9-22 20-43 25-46 18-11 15-60-4-60-17 0-86 75-86 93 0 8-11 20-25 27-33 18-34 50 0 50 13 0 35-5 49-11zm2432-118c18-21 22-34 18-67-3-30-1-43 9-47 11-4 14-19 11-54-5-72-8-97-15-103-3-3-16-37-27-76-12-40-33-91-46-114l-23-42-10 29c-6 15-7 37-3 48 5 11 6 30 3 43-3 12 0 29 7 37 16 19 21 112 8 145-6 14-10 48-9 77 0 29-4 55-9 58-13 8-13 81 1 106 10 19 12 20 36 3 14-9 36-28 49-43zm-1476 27c24-26 37-67 24-77-5-3-16-19-25-36-13-25-20-30-47-27s-34-1-42-23c-10-26-30-26-30-1 0 7-9 21-20 31s-20 29-20 43c0 21-4 24-30 20-24-4-30-1-28 10 4 23 55 34 72 16 8-8 21-14 30-14 20 0 76 48 76 66 0 20 16 17 40-8zm404-30c8-18 12-44 9-58s-4-54-4-90c1-36 2-92 2-125 2-80 2-224 0-255-1-14-3-62-5-107s-8-88-13-95c-6-7-9-22-6-33 9-44 26-213 27-267 1-42-4-61-18-77-13-15-17-28-12-48 7-29 8-44 5-136-1-36 5-65 20-95 17-33 19-47 11-62-6-11-12-42-13-70-2-31-10-56-21-69-19-21-19-59 0-131 4-14 6-48 5-77 0-29 4-55 9-58 15-9 12-52-6-87-15-29-15-38 2-118 15-66 14-151-2-187-24-53-24-57-27-158-3-73 0-96 16-122 28-49 20-75-27-88-32-9-49-8-95 7s-68 32-128 96c-41 42-76 88-78 102-3 14-10 43-16 65-9 36-12 106-9 220 1 48-6 109-19 150-4 17-4 40 0 53 12 32 9 174-3 189-14 18-18 74-6 96 5 11 12 58 14 105 2 48 6 97 9 110 2 13-4 49-14 80-15 48-15 62-5 88 7 17 14 52 15 78 2 26 6 49 10 52 9 5-6 60-20 78-6 7-13 32-16 55-3 24-11 57-19 75-8 17-17 46-21 63-4 18-13 37-21 41s-16 17-18 28c-10 50-43 90-96 116-30 15-68 28-85 30-16 1-34 5-40 9-5 4-28 10-50 13-22 4-50 13-63 20-17 9-40 10-86 3-48-7-70-5-97 6-32 13-39 12-87-9-29-13-52-20-52-16s-4 2-8-5c-15-24-149-34-163-11-6 9-11 9-23-1-11-9-31-11-63-6-34 4-54 2-67-8-19-14-19-15 1-48 11-19 21-52 22-73 1-22 5-44 9-50s8-225 9-486c2-261 5-599 8-750 6-322 6-271 0-400-9-211-10-215-64-206-73 12-111 27-141 57-24 25-28 34-19 45 7 8 13 43 14 78s5 68 8 73 1 28-4 52c-8 38-6 113 4 175 2 11 0 40-5 65-5 28-4 57 3 78 7 23 7 48-2 90-20 99-22 151-6 176 9 15 13 41 11 77-4 65-4 57 0 149 2 41-3 101-10 133-13 56-13 60 7 88 17 22 20 36 15 67-3 21-8 63-11 93-2 30-6 71-9 90-2 19 0 81 4 138 6 69 6 111-1 130-6 15-10 59-9 97 1 39 2 111 4 160 1 50-1 98-4 109-4 10 0 42 7 70 12 46 12 153 0 173s-18 171-7 178c15 9 37-11 55-49 9-17 30-41 49-53s44-41 58-65c19-36 29-44 58-46 44-5 57-15 83-71 11-25 24-48 27-51 4-3 12-15 19-27 6-13 24-29 39-37 39-20 93 5 122 56 12 21 18 38 14 38-3 0-2 6 4 13 6 6 10 14 10 17s6 17 12 32c13 27 54 48 95 48 12 0 33 8 46 19 34 26 112 44 134 30 6-4 27-10 49-13 34-7 96-40 104-57 7-15 59-67 77-76 10-6 24-28 30-50 13-48 61-77 104-62 25 9 92 86 119 139 8 14 44 46 81 71 55 38 69 54 79 86 8 28 24 49 51 68 22 15 44 40 50 56 14 41 48 39 65-3zm258-10c18-14 26-47 16-63-4-6 0-36 7-67 13-55 8-169-8-184-9-10-57 16-57 30 0 6-8 27-19 46-16 30-17 41-7 75 14 49 13 64-1 91-10 17-8 27 7 52 21 34 37 39 62 20zm-1461-29c5-1 14-3 19-4 6-1 15-3 20-4 18-2 10-30-10-36-11-3-21-11-21-16-1-5-2-15-3-21-3-18-28-11-48 14-21 23-22 36-8 73 9 24 11 25 26 11 8-9 20-17 25-17zm-1466-31c28-13 28-14 26-116-1-59 3-79 19-102 20-28 18-60-4-60-6 0-28 33-49 73-38 72-53 132-36 142 5 4 9 22 9 41 0 38 0 38 35 22zm818-24c3-3 2-16-3-28-4-12-4-29 1-39 5-9 11-74 13-144s8-139 12-152l7-24-26 19c-33 24-40 44-38 112 0 29-3 61-9 71-5 10-10 37-11 59-2 23-6 42-10 42-10 0 7 58 22 76 12 15 31 18 42 8zm-853-191c13-27 30-56 38-65 8-10 17-37 19-60 3-24 9-47 13-52 4-4 5-20 1-35-8-27-7-71 3-156 9-72 7-135-6-159-6-12-11-22-10-23 1-2-1-4-5-5-11-2-54 75-49 88 3 6 0 16-6 22-17 17-9 161 11 187 5 5 7 46 5 90-3 60-10 92-30 132-22 45-27 83-11 83 2 0 14-21 27-47zm2943-71c10-10 14-22 10-25-3-4-1-7 6-7 9 0 12-9 9-25-3-14-1-28 4-31 4-3 6-9 3-14s0-29 6-54c7-30 8-50 1-62-7-13-6-26 5-47 13-25 13-31-1-52-9-14-16-31-16-40 0-22-38-13-67 15-18 18-23 30-19 49 16 65 14 103-3 108-27 7-26 126 1 149 10 10 18 25 18 36 0 23 22 23 43 0zm861-115c-3-16-6-44-6-62 0-19-6-36-13-39-10-4-14-28-14-93 0-48-1-113-3-143-3-57-3-57-58-51-5 1-10 15-10 31 0 17-7 42-16 55-13 20-14 31-6 53 6 15 11 46 11 69 0 22 4 49 10 60 6 10 15 36 21 58 5 22 22 59 37 83 25 39 29 41 41 25 7-11 10-29 6-46zm-2930-90c25-241 25-286 2-303-11-7-21-13-22-11-10 10-17 80-18 189-2 99-6 135-21 168-16 35-17 43-5 50 28 17 58-26 64-93zm745-150c6-8 32-24 58-37 63-32 83-49 84-74 0-12 14-41 29-66 61-94 61-95 65-228 2-70 0-131-3-137-10-16-10-108 0-128 14-28 19-65 10-71-10-6-8-273 3-306 4-14 15-30 23-36 15-11 8-39-8-29-4 2-25 7-46 11-22 3-57 10-78 15-32 9-47 7-80-7-23-10-44-23-48-29-10-12-4-55 11-83 12-22 67-65 88-68 25-4 45-36 59-95 8-33 21-73 29-89 9-16 17-51 18-77 2-27 9-58 15-70 19-34 14-53-23-94-19-21-37-51-41-66-16-68-93-129-158-124-16 1-37-6-47-15-26-23-40-14-69 42-25 49-25 52-27 334-1 157-5 321-9 365s-7 87-7 95c2 179 3 219 8 300 3 36 7 205 9 375 4 344 8 382 40 395s82 12 95-3zm-221-57c39-70 52-249 38-550-9-187-12-233-21-259-3-11-8-65-10-118-4-100-28-228-65-342-11-35-20-71-20-79s-3-12-7-9c-5 6-16 204-13 257 0 8 0 40-1 70-2 73-2 238 0 325 0 39 1 113 1 165 1 425 11 542 47 563 7 5 10 13 7 19-4 6-1 9 6 6 7-2 24-24 38-48zm1527 30c18-20 11-25-19-14-17 6-23 34-8 34 5 0 17-9 27-20zm21-38c17-11 31-117 29-212-2-56 2-97 11-119 10-25 12-43 4-69-5-19-7-40-3-45 3-5 0-8-8-5s-30 37-50 77c-35 68-37 78-34 154 1 45-3 98-10 118-6 19-9 52-7 72 4 32 8 37 31 37 14 0 31-4 37-8zm-931-54c21-33 43-72 55-98 4-8 1-27-6-42-14-27-10-58 7-58 5 0 9-6 9-12 0-7 6-25 14-40 12-23 12-29 0-39-14-11-16-82-3-104 13-21 20-108 14-160-6-45-11-55-26-55-10 0-26 11-35 25-17 27-21 79-15 230 2 50-2 110-8 135-7 25-12 52-12 60 2 60 0 104-8 118-13 27-22 72-14 72 5 0 17-14 28-32zm-1965-47c19-19 26-130 11-197-13-58-16-61-44-40-15 11-19 33-23 115-2 56-5 105-6 109s2 17 6 30c8 24 14 22 56-17zm3726-40c14-35 0-69-51-126l-35-40-20 24c-11 13-20 31-20 40s-5 22-10 27c-7 7 0 26 20 57 27 43 33 47 68 47 32 0 39-4 48-29zm-2884-8c6-16 12-52 13-80 1-29 4-55 7-58s2-23-3-43c-4-20-7-53-5-72 1-19-1-42-5-50-13-26-26-62-28-80-1-7-7-7-21 0-17 9-19 17-13 73 6 59 7 88 4 132-4 73 6 174 18 188 18 22 20 22 33-10zm2892-145c-10-81-10-119 2-163 5-22 10-56 9-75s2-42 6-51c6-11 2-25-11-42-11-14-20-32-20-41s-3-16-8-16c-4 0-23-14-41-31-36-32-61-28-44 7 6 11 9 33 8 49-1 17 5 38 13 48 14 16 14 20-1 47-14 22-15 34-7 56 6 15 10 37 9 48-1 12 0 23 1 26 2 3 4 24 5 47 2 30 12 55 39 92 21 28 40 51 42 51 3 0 2-24-2-52zm-3757-74c26-7 41-45 48-120 5-53-11-87-55-121-20-16-40 2-33 30 22 94 23 115 8 185-8 33-5 36 32 26zm2897-74c19-38 33-70 30-70s-22 9-44 20c-42 21-52 46-37 93 5 15 10 27 12 27s19-31 39-70zm6-90c22-11 40-24 41-28 0-4 2-16 5-27 4-20 5-93 3-167-1-32-5-38-23-38-12 0-31 6-42 14-16 12-19 26-17 95 1 58-2 83-13 91-7 7-11 16-8 21s0 9-5 9c-6 0-11 11-11 25 0 31 17 32 70 5zm-2051-66c7-19 10-47 7-62s-8-67-11-117c-4-57-12-95-20-104-19-20-27-10-27 35 0 21-4 48-8 60-5 13-4 26 2 32s8 28 4 54c-8 54-8 65 0 109 8 47 35 43 53-7zm-780-58c-5-19-11-62-14-97-5-83-16-119-41-135-19-13-19-11-18 59 0 40-5 83-12 97-9 20-10 30 0 48 13 24 77 72 88 66 3-2 2-19-3-38zm1355-98c-4-46-7-87-6-93 0-5 1-41 1-80 0-38 1-104 2-145s1-113 1-160 0-116 0-155c2-204-4-336-17-400-3-11-16-32-30-48-20-21-30-25-44-18-18 10-25 68-23 198 0 24-4 45-9 49-5 3-7 9-4 13 2 5 7 51 10 102 5 103 6 105 34 223 11 44 22 104 25 131 3 28 8 61 11 75s8 57 11 95c10 124 12 140 18 165 4 14 9 45 11 70s4 48 4 53c1 4 4 7 7 7s2-37-2-82zm651 52c13-11 16-25 11-69-3-31-6-79-7-107-1-44-5-53-25-63-13-6-24-7-25-3 0 4-3 21-5 37-13 76-15 197-4 210 13 16 32 14 55-5zm1627-51c-15-22-28-35-30-29-3 9 44 70 54 70 2 0-9-18-24-41zm66-37c5-20 8-69 7-109-2-45 2-78 9-89 10-13 10-26-2-63-22-69-26-74-54-78-33-4-62 31-48 57 5 10 7 19 5 21-2 3 0 21 5 42 5 23 4 39-2 43-11 7-2 88 13 115 4 9 4 20-1 25-11 11 38 86 51 78 5-3 13-22 17-42zm-851-32c28-17 31-23 23-44-5-13-6-27-2-30 3-4 7-49 8-101 2-73 0-95-12-99-28-11-44 5-44 43 0 21-7 62-16 92-17 54-20 105-9 140 8 24 12 24 52-1zm-2076-138c-31-81-38-223-15-294 20-62 14-98-9-48-8 20-25 44-36 54-16 15-18 22-10 33 6 7 8 13 4 13s-2 6 4 14c9 11 20 80 22 146 1 8 6 31 12 50s11 40 12 45c1 6 5 19 10 30 9 19 10 19 13 2 2-10-1-31-7-45zm-793-64c1-83-3-119-14-135-21-33-34-28-34 12 0 19-7 55-16 80-15 44-14 47 11 100 41 87 53 74 53-57zm2036-4c2-27 7-61 11-75 4-17 2-31-8-41-8-7-22-29-31-47-10-18-19-31-22-29-3 4-13 116-16 181-1 30 40 81 55 67 5-4 10-29 11-56zm853-111c5-100 13-175 22-190 8-16 4-21-22-32-18-8-44-23-59-33-30-21-38-10-13 16 20 19 25 64 14 123-6 30-5 51 1 57 5 5 10 25 10 43 0 28 4 33 23 33 15 0 23-6 24-17zm824-39c13-35 6-159-10-178-7-8-10-20-6-25 3-6 8-28 10-51 2-22 9-48 14-58 12-23-2-47-39-65-14-7-26-23-28-37-5-31-17-46-53-64-37-19-43-8-19 36 10 19 21 56 23 81 3 25 10 54 15 63s7 25 5 34c-3 10 2 31 10 47 11 21 13 34 5 47-7 13-8 24-1 35 6 9 7 39 4 66-10 79-5 95 30 95 23 0 32-6 40-26zm-3691-40c-6-14-10-40-10-58 0-17-4-36-9-41-13-14-20-122-9-133 6-6 5-26-2-51-8-32-8-51 0-77 6-19 9-40 7-47-6-15-37 55-37 85 0 12-9 31-20 43-24 26-26 51-11 132 6 34 9 73 5 87-6 27-1 34 50 74 34 26 49 21 36-14zm2024 6c-1-17 2-32 6-35 9-6 5-42-10-90-6-17-8-64-6-104 3-60 1-79-16-107-11-19-29-39-39-44-18-10-18-9 1 31 17 39 17 69 1 69-4 0-7 30-6 68 2 37-2 75-7 85-6 12-2 31 15 65 49 97 65 113 61 62zm1398-254c16-23 6-84-26-166-32-79-38-87-85-116-29-17-62-41-74-53-17-15-26-18-34-10s-21 7-47-2c-31-11-41-11-72 4-41 20-172 104-191 123-7 7-23 21-36 31-24 19-57 62-57 75 0 5 6 8 13 8 6 0 26 7 42 16 17 9 46 16 65 16s44 5 55 11 54 15 95 19c41 5 86 11 100 13l77 11c29 4 58 13 64 21 14 16 100 15 111-1zm-3088-21c-11-27-145-87-161-72-13 13 69 65 122 78 44 10 45 10 39-6zm269-80c48-24 88-45 90-44 1 0 19-7 39-15 57-24 108-73 108-105 0-14 7-35 15-45 22-29 19-34-27-41-24-4-47-10-53-13-5-4-14-7-20-8-5-1-26-5-45-9-93-18-142-24-219-24-76-1-85 1-102 23-10 13-44 36-75 52-51 26-104 83-104 113 0 5-7 11-15 15-23 8-18 40 11 65 51 45 129 79 199 88 22 3 41 6 43 8 8 7 74-18 155-60zm2395-220c39-26 72-51 72-56 0-14-15-10-43 11-14 11-28 20-31 20-11 0-90 54-107 72-9 10-19 18-23 18-14 0-76 46-76 57 0 6 30-8 68-32 37-24 100-64 140-90zm-2090-87c2-10-2-18-10-19-7 0-26-2-43-4-76-10-106-11-111-4-3 5-15 4-28-1s-26-6-29-3-22 5-41 5c-20 0-38 4-41 8s5 8 18 7c23 0 120 11 197 22 66 10 84 8 88-11zm1702-23c0-16-31-21-44-7-4 4-13 7-18 7-22 0-18 24 4 27 29 5 58-8 58-27z" transform="matrix(.1 0 0 -.1 0 512)"/></svg>